# xmcd
#
# Track frame offsets: 
#        150
#        14315
#        29735
#        40619
#        55857
#        69633
#        82441
#        96688
#        110012
#        123390
#        135885
#        146445
#
# Disc length: 2096 seconds
#
# Revision: 0
# Processed by: cddbd v1.5.2PL0 Copyright (c) Steve Scherf et al.
# Submitted via: ExactAudioCopyFreeDBPlugin 1.0
#
DISCID=ae082e0c
DTITLE=Dionne Warwick - 1964 - Make Way For Dionne Warwick
DYEAR=1964
DGENRE=Blues
TTITLE0=A House Is Not A Home
TTITLE1=People
TTITLE2=They Long To Be Close To You
TTITLE3=The Last One To Be Loved
TTITLE4=Land Of Make Believe
TTITLE5=Reach Out For Me
TTITLE6=You'll Never Get To Heaven
TTITLE7=Walk On By
TTITLE8=Wishin' And Hopin'
TTITLE9=I Smiled Yesterday
TTITLE10=Get Rid Of Him
TTITLE11=Make The Night A Little Longer
EXTD=
EXTT0=
EXTT1=
EXTT2=
EXTT3=
EXTT4=
EXTT5=
EXTT6=
EXTT7=
EXTT8=
EXTT9=
EXTT10=
EXTT11=
PLAYORDER=
